<?xml version="1.0" encoding="UTF-8" standalone="no"?>
<svg
   shape-rendering="geometricPrecision"
   width="512"
   height="155.45142"
   viewBox="0 0 131.072 39.795562"
   version="1.1"
   id="svg21"
   sodipodi:docname="transparent-logo.svg"
   inkscape:version="1.4.3 (0d15f75042, 2025-12-25)"
   xmlns:inkscape="http://www.inkscape.org/namespaces/inkscape"
   xmlns:sodipodi="http://sodipodi.sourceforge.net/DTD/sodipodi-0.dtd"
   xmlns="http://www.w3.org/2000/svg"
   xmlns:svg="http://www.w3.org/2000/svg">
  <defs
     id="defs21" />
  <sodipodi:namedview
     id="namedview21"
     pagecolor="#ffffff"
     bordercolor="#666666"
     borderopacity="1.0"
     inkscape:showpageshadow="2"
     inkscape:pageopacity="0.0"
     inkscape:pagecheckerboard="0"
     inkscape:deskcolor="#d1d1d1"
     inkscape:zoom="2.263446"
     inkscape:cx="200.13731"
     inkscape:cy="-46.168541"
     inkscape:window-width="2560"
     inkscape:window-height="1440"
     inkscape:window-x="0"
     inkscape:window-y="0"
     inkscape:window-maximized="1"
     inkscape:current-layer="svg21" />
  <metadata
     id="metadata1">null</metadata>
  <g
     id="g22"
     transform="matrix(0.14511968,0,0,0.14511968,-7.9206677,-55.466425)"
     style="fill:#1f3853;fill-opacity:1;stroke-width:6.89086">
    <path
       d="m 54.966,415.093 c 2.443,-15.445 14.717,-30.378 31.014,-32.211 7.62,-0.857 15.378,-0.521 23.031,-0.531 11.665,-0.016 23.33,-0.063 34.996,-0.052 35.333,0.035 70.668,0.063 106.002,0.046 10.667,-0.005 21.334,-0.029 32.001,-0.001 7.311,0.018 15.202,-0.77 22.31,1.302 4.203,1.226 8.097,3.639 11.613,6.205 7.142,5.213 12.201,13.041 13.878,21.75 1.34,6.962 0.882,14.348 0.91,21.405 0.068,17.499 0.045,34.998 0.039,52.498 -0.004,8.507 -0.666,17.297 -0.014,25.772 -20.581,0.027 -41.165,-0.043 -61.747,-0.038 -7.166,10e-4 -14.333,0.029 -21.499,0.011 -3.394,-0.008 -6.905,0.302 -10.277,-0.061 -1.277,-2.03 -1.811,-4.739 -2.505,-7.015 -1.547,-5.068 -3.21,-10.13 -4.881,-15.159 -0.886,-2.665 -1.751,-8.022 -4.662,-9.231 -1.255,-0.521 -3.397,-0.269 -4.732,-0.196 -2.908,1.262 -3.453,4.595 -3.849,7.352 -0.811,5.633 -1.734,11.258 -2.594,16.885 -2.711,17.74 -5.183,35.517 -7.809,53.269 -0.724,4.892 -1.487,9.798 -2.285,14.676 -0.256,1.564 -0.087,4.416 -1.011,5.725 -1.314,-5.257 -1.358,-11.168 -2.039,-16.573 -1.382,-10.972 -3.034,-21.88 -4.217,-32.88 -0.94,-8.733 -2.227,-17.496 -3.612,-26.169 -0.887,-5.555 -1.325,-11.21 -1.973,-16.799 -1.597,-13.76 -3.466,-27.493 -5.07,-41.249 -0.791,-6.781 -1.824,-13.534 -2.519,-20.324 -0.425,-4.152 -0.575,-8.589 -1.49,-12.658 -0.886,-3.94 -5.534,-7.249 -9.352,-4.264 -2.155,1.684 -1.855,4.813 -2.152,7.229 -0.749,6.082 -2.14,12.06 -2.887,18.142 -2.91,23.724 -6.437,47.444 -10.068,71.085 -1.14,7.421 -2.608,14.953 -3.247,22.433 -0.157,1.832 -0.465,3.64 -0.697,5.463 -0.033,0.264 -0.039,1.476 -0.411,1.47 -0.728,-4.997 -2.595,-9.984 -3.841,-14.879 -2.289,-8.987 -4.636,-17.966 -6.986,-26.939 -0.633,-2.415 -1.255,-4.89 -2.215,-7.199 -0.427,-1.027 -0.977,-2.332 -2.067,-2.822 -0.897,-0.403 -1.992,-0.33 -2.95,-0.355 -0.733,-0.019 -1.48,-0.061 -2.19,0.163 -2.699,0.853 -3.347,5.381 -4.241,7.675 -2.945,7.556 -5.22,15.45 -7.434,23.237 -1.185,0.511 -3.237,0.147 -4.524,0.145 -3.43,-0.005 -6.86,-0.046 -10.29,-0.065 -11.973,-0.068 -23.948,-0.112 -35.922,-0.101 -3.769,0.004 -7.54,0.004 -11.309,0.033 -1.171,0.009 -3.469,0.488 -4.452,-0.174 -0.308,-21.021 -0.093,-42.093 0.004,-63.118 0.033,-7 0.033,-14 0.043,-21.001 0.006,-3.946 -0.218,-7.978 0.179,-11.907 z"
       opacity="1"
       fill="#15386e"
       fill-rule="evenodd"
       id="path1"
       style="fill:#1f3853;fill-opacity:1;stroke-width:6.89086" />
    <path
       d="m 54.758,522.278 c 16.411,0.065 32.834,-0.032 49.248,-0.04 5.002,-0.003 10.003,-0.065 15.004,-0.09 2.574,-0.013 5.737,0.41 8.237,-0.249 2.323,-1.628 3.051,-4.193 3.931,-6.725 1.058,-3.043 2.011,-6.127 3.166,-9.134 3.508,9.061 5.692,18.916 7.714,28.413 1.374,6.451 3.242,12.801 4.723,19.228 0.692,3.002 1.336,6.013 2.035,9.013 0.744,3.198 1.194,6.049 4.957,6.768 2.488,0.475 5.422,-0.639 6.222,-3.244 0.586,-1.91 0.644,-4.049 0.972,-6.017 0.915,-5.478 1.51,-11.009 2.196,-16.519 2.341,-18.784 5.178,-37.5 7.878,-56.236 0.989,-6.865 1.821,-13.75 2.814,-20.614 0.517,-3.569 0.714,-7.559 2.093,-10.909 0.13,-0.141 0.26,-0.283 0.394,-0.43 0.091,0.067 0.023,-0.442 0.054,-0.333 0.334,1.205 0.205,2.566 0.398,3.805 0.665,4.283 1.104,8.597 1.801,12.873 1.873,11.497 3.081,23.173 4.324,34.753 1.557,14.516 3.799,28.999 5.62,43.492 2.061,16.395 3.427,32.88 5.567,49.266 0.904,6.92 1.526,13.88 2.299,20.817 0.379,3.406 0.204,6.888 3.809,8.536 2.163,0.988 5.82,0.505 7.048,-1.896 1.032,-2.02 0.786,-5.117 1.082,-7.331 0.76,-5.686 1.585,-11.368 2.345,-17.059 2.55,-19.101 5.598,-38.165 8.477,-57.218 1.803,-11.93 2.59,-24.316 5.404,-36.054 0.733,0.25 1.089,2.344 1.424,3.056 1.436,3.054 1.824,8.505 5.58,9.618 2.905,0.861 6.433,0.365 9.434,0.335 5.835,-0.059 11.67,-0.048 17.504,-0.059 16.331,-0.032 32.665,0.024 48.996,0.083 5.333,0.02 10.667,0.006 16,0.025 2.362,0.009 4.944,-0.345 7.277,-0.025 -0.297,2.864 -0.009,5.938 -0.006,8.825 0.008,5.834 0.014,11.667 0.011,17.5 -0.008,17.834 -0.036,35.668 -0.015,53.502 0.011,8.737 1.063,18.209 -1.074,26.748 -1.49,5.955 -4.781,11.331 -8.913,15.82 -5.689,6.183 -13.486,10.368 -21.853,11.495 -4.746,0.639 -9.657,0.227 -14.435,0.233 -6.999,0.008 -13.998,0.043 -20.998,0.055 -46.832,0.086 -93.665,0.006 -140.498,0.029 -7.119,0.003 -14.238,-0.021 -21.358,-0.027 -4.858,-0.004 -9.914,0.323 -14.74,-0.314 -8.186,-1.081 -16.668,-5.311 -22.059,-11.605 -2.308,-2.695 -4.582,-5.554 -6.085,-8.79 -5.148,-11.092 -4.01,-23.776 -4.036,-35.644 -0.057,-25.906 0.171,-51.825 0.032,-77.726 z"
       opacity="1"
       fill="#15386e"
       fill-rule="evenodd"
       id="path2"
       style="fill:#1f3853;fill-opacity:1;stroke-width:6.89086" />
  </g>
  <g
     id="g21"
     transform="matrix(0.14511968,0,0,0.18255482,-7.9206677,-64.005646)"
     style="fill:#1f3853;fill-opacity:1;stroke-width:6.14385">
    <path
       d="m 372.875,387.899 c 0.058,-0.121 0.116,-0.243 0.174,-0.364 16.122,-0.667 32.329,0.168 48.463,-0.043 17.46,-0.229 35.725,-1.215 51.926,6.498 5.65,2.69 11.078,6.32 15.228,11.052 17.95,20.47 16.045,54.209 -3.565,72.779 -14.336,13.578 -34.868,15.546 -53.599,15.546 -6.332,0 -12.666,-0.026 -18.998,0.01 -1.474,0.008 -2.948,0.02 -4.422,0.004 -0.585,-0.006 -1.56,-0.2 -1.913,0.326 0.854,10.966 0.088,22.293 0.098,33.296 0.003,2.665 0.024,5.331 0.01,7.997 -0.004,0.674 0.356,2.532 -0.165,3.005 -4.172,0.532 -8.687,0.068 -12.894,0.029 -6.748,-0.063 -13.525,0.118 -20.264,-0.047 -0.509,-6.431 -0.14,-13.034 -0.141,-19.485 -10e-4,-11.499 -0.028,-22.999 -0.035,-34.499 -0.02,-32.025 -0.339,-64.082 0.097,-96.104 z m 33.582,27.054 c -0.114,0.084 -0.229,0.169 -0.343,0.254 0.129,11.593 0.059,23.2 0.073,34.796 0.005,3.667 0.03,7.333 0.032,11 0.001,1.813 -0.247,3.731 0.078,5.52 3.308,-0.44 6.874,-0.104 10.212,-0.107 6.806,-0.005 13.613,0.01 20.419,-0.037 7.245,-0.05 15.098,-1.008 21.157,-5.341 13.565,-9.703 12.523,-33.72 -1.791,-42.051 -9.286,-5.405 -20.993,-4.222 -31.294,-4.195 -6.066,0.017 -12.525,-0.565 -18.543,0.161 z"
       opacity="1"
       fill="#13356c"
       fill-rule="evenodd"
       id="path3"
       style="fill:#1f3853;fill-opacity:1;stroke-width:6.14385" />
    <path
       d="m 523.054,422.615 c 5.463,-0.376 10.981,-0.179 16.456,-0.186 5.247,-0.006 10.55,-0.233 15.787,0.064 0.917,5.544 0.086,11.888 0.094,17.516 0.016,12.167 0.008,24.335 0.013,36.502 0.003,8.011 -0.898,17.08 2.739,24.488 8.415,17.14 34.269,13.875 42.372,-1.666 4.336,-8.316 3.435,-18.269 3.442,-27.336 0.013,-16.257 -0.706,-32.718 0.05,-48.948 0.657,-0.64 1.595,-0.53 2.496,-0.528 2.001,0.005 4.003,0.009 6.004,0.011 7.825,0.007 15.929,-0.747 23.721,0.108 0.366,0.817 0.155,1.967 0.141,2.859 -0.033,2.167 0,4.339 0.006,6.507 0.021,7.668 0.017,15.336 0.033,23.005 0.039,19 -0.038,38 -0.004,57 0.015,8.582 -0.579,17.4 -0.002,25.952 -2.179,0.435 -4.683,0.117 -6.902,0.133 -5.499,0.04 -10.995,-0.14 -16.494,-0.147 -2.307,-0.003 -4.778,-0.252 -7.062,0.039 -0.886,-0.773 -0.371,-2.407 -0.348,-3.498 0.062,-2.929 -0.127,-5.871 -0.027,-8.798 0.022,-0.658 0.23,-3.655 -0.59,-3.06 -17.168,25.44 -62.222,22.926 -75.903,-4.628 -6.022,-12.127 -5.962,-26.294 -5.991,-39.502 -0.041,-18.598 0.585,-37.303 -0.031,-55.887 z"
       opacity="1"
       fill="#13356c"
       fill-rule="evenodd"
       id="path8"
       style="fill:#1f3853;fill-opacity:1;stroke-width:6.14385" />
    <path
       d="m 670.045,379.091 c 3.464,-0.321 6.987,-0.055 10.464,-0.054 7.051,0.002 14.105,0.032 21.153,-0.027 0.561,12.439 0.047,25.039 0.059,37.496 0.025,25 0.017,50 0.035,74.999 0.008,10.667 0.009,21.334 0.018,32.001 0.003,3.332 0.01,6.666 -0.007,9.998 -0.007,1.39 -0.306,3.292 0.042,4.625 -10.419,0.015 -20.979,-0.784 -31.384,-0.181 -0.527,-1.058 -0.188,-2.769 -0.183,-3.942 0.013,-2.834 0.003,-5.667 0,-8.501 -0.01,-10.665 -0.07,-21.331 -0.083,-31.996 -0.031,-25.334 -0.022,-50.668 -0.047,-76.001 -0.012,-12.775 0.495,-25.656 -0.067,-38.417 z"
       opacity="1"
       fill="#14356c"
       fill-rule="evenodd"
       id="path12"
       style="fill:#1f3853;fill-opacity:1;stroke-width:6.14385" />
    <path
       d="m 722.819,527.542 c 2.056,-5.32 4.107,-10.659 6.282,-15.932 0.805,-1.952 1.297,-4.948 2.723,-6.497 4.331,2.08 8.355,4.478 12.887,6.223 10.43,4.017 22.213,5.663 33.338,4.413 6.773,-0.761 15.163,-3.586 13.748,-11.995 -0.229,-1.358 -0.699,-2.62 -1.632,-3.656 -4.883,-5.426 -14.801,-5.815 -21.54,-6.95 -14.936,-2.517 -34.16,-5.914 -40.686,-21.643 -4.525,-10.908 -2.251,-24.979 5.155,-34.064 3.908,-4.795 9.255,-8.511 14.857,-11.052 7.612,-3.453 16.052,-4.678 24.343,-5.075 15.566,-0.747 32.676,0.931 46.655,8.317 0.053,0.516 -0.356,1.285 -0.562,1.776 -2.956,7.056 -5.138,14.456 -8.227,21.461 -0.543,0.366 -2.5,-1.031 -3.068,-1.298 -2.717,-1.28 -5.675,-2.357 -8.581,-3.122 -10.1,-2.657 -22.004,-4.718 -32.294,-1.652 -4.404,1.313 -9.428,3.515 -10.258,8.649 -0.689,4.265 1.942,7.678 5.669,9.376 6.111,2.784 13.509,3.295 20.04,4.555 14.438,2.786 32.632,5.54 38.861,21.038 0.978,2.431 1.624,4.99 1.93,7.594 0.443,3.768 0.262,7.679 -0.354,11.418 -4.057,24.626 -32.857,31.714 -54.096,30.709 -4.492,-0.212 -8.947,-0.892 -13.402,-1.489 -4.88,-0.654 -9.644,-1.815 -14.362,-3.202 -6.169,-1.815 -11.638,-4.796 -17.496,-7.251 0.023,-0.217 0.047,-0.434 0.07,-0.651 z"
       opacity="1"
       fill="#13356d"
       fill-rule="evenodd"
       id="path14"
       style="fill:#1f3853;fill-opacity:1;stroke-width:6.14385" />
    <path
       d="m 837.984,477.607 c 0.338,-3.644 0.431,-7.339 1.204,-10.93 2.2,-10.228 6.844,-19.577 13.934,-27.299 21.753,-23.692 65.217,-25.51 88.415,-2.974 9.985,9.701 15.119,23.43 16.132,37.118 0.402,5.43 -0.423,10.774 -0.398,16.173 -7.19,0.474 -14.564,0.045 -21.772,0.036 -13.334,-0.017 -26.666,0.012 -39.999,0.042 -5.666,0.012 -11.333,0.035 -16.999,0.036 -2.742,0 -6.144,-0.561 -8.73,0.418 1.727,5.231 3.067,9.629 6.729,13.952 10.392,12.266 30.147,12.477 43.843,6.758 4.496,-1.878 7.862,-4.927 11.654,-7.808 1.307,2.043 3.527,3.84 5.23,5.583 3.965,4.06 8.229,8.034 11.837,12.419 -0.262,1.056 -1.326,1.916 -2.071,2.668 -1.828,1.845 -3.787,3.473 -5.806,5.099 -9.887,7.961 -24.156,10.556 -36.491,11.25 -22.908,1.289 -45.941,-7.912 -58.329,-27.856 -3.105,-4.998 -5.274,-10.701 -6.706,-16.391 -1.484,-5.902 -2.002,-12.22 -1.677,-18.294 z m 32.024,-8 c -0.118,0.603 -0.06,0.291 -0.17,0.937 0.593,0.511 3.163,0.039 3.968,0.03 3.634,-0.039 7.267,-0.042 10.9,-0.112 14.066,-0.267 28.168,0.633 42.22,0.258 0.362,-2.712 -1.039,-6.241 -1.965,-8.738 -3.659,-9.863 -13.209,-16.169 -23.602,-16.337 -11.848,-0.192 -22.962,4.264 -28.601,15.347 -1.409,2.77 -2.068,5.61 -2.75,8.615 z"
       opacity="1"
       fill="#13366d"
       fill-rule="evenodd"
       id="path19"
       style="fill:#1f3853;fill-opacity:1;stroke-width:6.14385" />
  </g>
</svg>
